# xmcd CD database file
#
# Track frame offsets:
#	150
#	26608
#	57445
#	70856
#	104319
#	119323
#	146508
#	177306
#	193724
#	220256
#	240316
#	276670
#
# Disc length: 3915 seconds
#
# Revision: 1
# Processed by: cddbd v1.5.2PL0 Copyright (c) Steve Scherf et al.
# Submitted via: CDex 1.51
#
DISCID=b50f490c
DTITLE=Rita Falk - Sauerkraut-Koma
DYEAR=2013
DGENRE=Hörbuch
TTITLE0=Sauerkraut-Koma - 27
TTITLE1=Sauerkraut-Koma - 28
TTITLE2=Sauerkraut-Koma - 29
TTITLE3=Sauerkraut-Koma - 30
TTITLE4=Sauerkraut-Koma - 31
TTITLE5=Sauerkraut-Koma - 32
TTITLE6=Sauerkraut-Koma - 33
TTITLE7=Sauerkraut-Koma - 34
TTITLE8=Sauerkraut-Koma - 35
TTITLE9=Sauerkraut-Koma - 36
TTITLE10=Sauerkraut-Koma - 37
TTITLE11=Sauerkraut-Koma - 38
EXTD=YEAR: 2013
EXTT0=
EXTT1=
EXTT2=
EXTT3=
EXTT4=
EXTT5=
EXTT6=
EXTT7=
EXTT8=
EXTT9=
EXTT10=
EXTT11=
PLAYORDER=
